# Blender 3.3.1
# www.blender.org
mtllib button.mtl
o Icosphere
v 0.000000 -1.000000 0.000000
v -0.894426 -0.447216 0.000000
v -0.276388 -0.447220 -0.850649
v 0.723607 -0.447220 -0.525725
v -0.723607 0.447220 -0.525725
v 0.276388 0.447220 -0.850649
v 0.894426 0.447216 0.000000
v 0.000000 1.000000 0.000000
v -0.077607 -0.967950 0.238853
v 0.203181 -0.967950 0.147618
v 0.425323 -0.850654 0.309011
v 0.812729 -0.502301 -0.295238
v 0.850648 -0.525736 0.000000
v 0.812729 -0.502301 0.295238
v 0.203181 -0.967950 -0.147618
v 0.425323 -0.850654 -0.309011
v 0.609547 -0.657519 -0.442856
v -0.753442 -0.657515 0.000000
v -0.525730 -0.850652 0.000000
v -0.251147 -0.967949 0.000000
v -0.831051 -0.502299 0.238853
v -0.232822 -0.657519 -0.716563
v -0.162456 -0.850654 -0.499995
v -0.077607 -0.967950 -0.238853
v -0.831051 -0.502299 -0.238853
v -0.688189 -0.525736 -0.499997
v -0.483971 -0.502302 -0.716565
v -0.029639 -0.502302 -0.864184
v 0.262869 -0.525738 -0.809012
v 0.531941 -0.502302 -0.681712
v 0.956626 0.251149 0.147618
v 0.951058 -0.000000 0.309013
v 0.860698 -0.251151 -0.442858
v 0.951058 0.000000 -0.309013
v 0.956626 0.251149 -0.147618
v -0.951058 -0.000000 0.309013
v -0.956626 -0.251149 0.147618
v -0.687159 0.251152 -0.681715
v -0.587786 -0.000000 -0.809017
v -0.436007 -0.251152 -0.864188
v -0.956626 -0.251149 -0.147618
v -0.951058 0.000000 -0.309013
v -0.860698 0.251151 -0.442858
v 0.436007 0.251152 -0.864188
v 0.587786 -0.000000 -0.809017
v 0.687159 -0.251152 -0.681715
v -0.155215 -0.251152 -0.955422
v 0.000000 0.000000 -1.000000
v 0.155215 0.251152 -0.955422
v 0.831051 0.502299 0.238853
v -0.812729 0.502301 0.295238
v -0.850648 0.525736 0.000000
v -0.812729 0.502301 -0.295238
v -0.531941 0.502302 -0.681712
v -0.262869 0.525738 -0.809012
v 0.029639 0.502302 -0.864184
v 0.483971 0.502302 -0.716565
v 0.688189 0.525736 -0.499997
v 0.831051 0.502299 -0.238853
v 0.077607 0.967950 0.238853
v 0.753442 0.657515 0.000000
v 0.525730 0.850652 0.000000
v 0.251147 0.967949 0.000000
v -0.203181 0.967950 0.147618
v -0.425323 0.850654 0.309011
v -0.203181 0.967950 -0.147618
v -0.425323 0.850654 -0.309011
v -0.609547 0.657519 -0.442856
v 0.077607 0.967950 -0.238853
v 0.162456 0.850654 -0.499995
v 0.232822 0.657519 -0.716563
v 0.361800 0.894429 -0.262863
v 0.638194 0.723610 -0.262864
v 0.447209 0.723612 -0.525728
v -0.138197 0.894430 -0.425319
v -0.052790 0.723612 -0.688185
v -0.361804 0.723612 -0.587778
v -0.447210 0.894429 0.000000
v -0.670817 0.723611 -0.162457
v -0.670817 0.723611 0.162457
v 0.361800 0.894429 0.262863
v 0.638194 0.723610 0.262864
v 0.861804 0.276396 -0.425322
v 0.809019 0.000000 -0.587782
v 0.670821 0.276397 -0.688189
v -0.138199 0.276397 -0.951055
v -0.309016 -0.000000 -0.951057
v -0.447215 0.276397 -0.850649
v -0.947213 0.276396 -0.162458
v -1.000000 0.000001 0.000000
v -0.947213 0.276397 0.162458
v 0.309017 -0.000000 -0.951056
v 0.447216 -0.276398 -0.850648
v 0.138199 -0.276398 -0.951055
v -0.809018 -0.000000 -0.587783
v -0.670819 -0.276397 -0.688191
v -0.861803 -0.276396 -0.425324
v 1.000000 0.000000 0.000000
v 0.947213 -0.276396 0.162458
v 0.947213 -0.276396 -0.162458
v 0.361803 -0.723612 -0.587779
v 0.138197 -0.894429 -0.425321
v 0.052789 -0.723611 -0.688186
v -0.447211 -0.723612 -0.525727
v -0.361801 -0.894429 -0.262863
v -0.638195 -0.723609 -0.262863
v -0.638195 -0.723609 0.262864
v -0.361801 -0.894428 0.262864
v 0.670817 -0.723611 -0.162457
v 0.670818 -0.723610 0.162458
v 0.447211 -0.894428 0.000001
vn 0.0482 -0.9878 0.1482
vn -0.1261 -0.9878 0.0916
vn -0.1261 -0.9878 -0.0916
vn 0.0482 -0.9878 -0.1482
vn -0.9050 -0.3987 0.1482
vn -0.4206 -0.3987 -0.8149
vn 0.6451 -0.3987 -0.6519
vn -0.9532 -0.3024 -0.0000
vn -0.2945 -0.3024 -0.9065
vn 0.7711 -0.3024 -0.5603
vn -0.7230 0.5545 -0.4121
vn 0.1685 0.5545 -0.8149
vn 0.8271 0.5545 -0.0916
vn 0.1261 0.9878 -0.0916
vn 0.3912 0.9158 -0.0915
vn 0.6441 0.7594 -0.0915
vn 0.2334 0.9575 -0.1696
vn 0.2079 0.9158 -0.3438
vn 0.5168 0.8363 -0.1830
vn 0.4911 0.7947 -0.3568
vn 0.3338 0.8363 -0.4350
vn 0.2860 0.7594 -0.5843
vn 0.7520 0.6369 -0.1696
vn 0.7261 0.5955 -0.3438
vn 0.5987 0.6726 -0.4350
vn 0.5513 0.5955 -0.5843
vn 0.3936 0.6369 -0.6628
vn 0.3427 0.5545 -0.7583
vn -0.0482 0.9878 -0.1482
vn 0.0339 0.9158 -0.4003
vn 0.1121 0.7594 -0.6409
vn -0.0891 0.9575 -0.2743
vn -0.2627 0.9158 -0.3039
vn -0.0144 0.8363 -0.5481
vn -0.1876 0.7947 -0.5773
vn -0.3105 0.8363 -0.4519
vn -0.4674 0.7594 -0.4526
vn 0.0711 0.6369 -0.7676
vn -0.1026 0.5955 -0.7968
vn -0.2287 0.6726 -0.7038
vn -0.3854 0.5955 -0.7049
vn -0.5087 0.6369 -0.5792
vn -0.6153 0.5545 -0.5603
vn -0.1558 0.9878 -0.0000
vn -0.3702 0.9158 -0.1560
vn -0.5749 0.7594 -0.3046
vn -0.2885 0.9575 -0.0000
vn -0.3702 0.9158 0.1560
vn -0.5257 0.8363 -0.1557
vn -0.6071 0.7947 -0.0000
vn -0.5257 0.8363 0.1557
vn -0.7081 0.6369 -0.3049
vn -0.7895 0.5955 -0.1487
vn -0.7400 0.6726 -0.0000
vn -0.7895 0.5955 0.1487
vn -0.0482 0.9878 0.1482
vn 0.1261 0.9878 0.0916
vn 0.2334 0.9575 0.1696
vn 0.3912 0.9158 0.0915
vn 0.5168 0.8363 0.1830
vn 0.6441 0.7594 0.0915
vn 0.7520 0.6369 0.1696
vn 0.8271 0.5545 0.0916
vn 0.9050 0.3987 -0.1482
vn 0.9366 0.1745 -0.3039
vn 0.8883 -0.0784 -0.4526
vn 0.8963 0.3485 -0.2743
vn 0.8039 0.4399 -0.4003
vn 0.8869 0.0962 -0.4519
vn 0.7947 0.1876 -0.5773
vn 0.7544 0.3611 -0.5481
vn 0.6291 0.4399 -0.6409
vn 0.7972 -0.1702 -0.5792
vn 0.7049 -0.0784 -0.7049
vn 0.7038 0.0962 -0.7038
vn 0.5785 0.1745 -0.7968
vn 0.5379 0.3485 -0.7676
vn 0.4206 0.3987 -0.8149
vn 0.1387 0.3987 -0.9065
vn 0.0004 0.1745 -0.9846
vn -0.1560 -0.0784 -0.9846
vn 0.0160 0.3485 -0.9372
vn -0.1323 0.4399 -0.8883
vn -0.1557 0.0962 -0.9831
vn -0.3035 0.1876 -0.9342
vn -0.2882 0.3611 -0.8869
vn -0.4151 0.4399 -0.7964
vn -0.3045 -0.1702 -0.9372
vn -0.4526 -0.0784 -0.8883
vn -0.4519 0.0962 -0.8869
vn -0.5791 0.1745 -0.7964
vn -0.5638 0.3485 -0.7488
vn -0.6451 0.3987 -0.6519
vn -0.8193 0.3987 -0.4121
vn -0.9363 0.1745 -0.3046
vn -0.9846 -0.0784 -0.1560
vn -0.8864 0.3485 -0.3049
vn -0.8857 0.4399 -0.1487
vn -0.9831 0.0962 -0.1557
vn -0.9822 0.1876 -0.0000
vn -0.9325 0.3611 -0.0000
vn -0.8857 0.4399 0.1487
vn -0.9854 -0.1702 -0.0000
vn -0.9846 -0.0784 0.1560
vn -0.9831 0.0962 0.1557
vn 0.9050 0.3987 0.1482
vn 0.2945 0.3024 -0.9065
vn 0.4526 0.0784 -0.8883
vn 0.5791 -0.1745 -0.7964
vn 0.3045 0.1702 -0.9372
vn 0.1560 0.0784 -0.9846
vn 0.4519 -0.0962 -0.8869
vn 0.3035 -0.1876 -0.9342
vn 0.1557 -0.0962 -0.9831
vn -0.0004 -0.1745 -0.9846
vn 0.5638 -0.3485 -0.7488
vn 0.4151 -0.4399 -0.7964
vn 0.2882 -0.3611 -0.8869
vn 0.1323 -0.4399 -0.8883
vn -0.0160 -0.3485 -0.9372
vn -0.1387 -0.3987 -0.9065
vn -0.7711 0.3024 -0.5603
vn -0.7049 0.0784 -0.7049
vn -0.5785 -0.1745 -0.7968
vn -0.7972 0.1702 -0.5792
vn -0.8883 0.0784 -0.4526
vn -0.7038 -0.0962 -0.7038
vn -0.7947 -0.1876 -0.5774
vn -0.8869 -0.0962 -0.4519
vn -0.9366 -0.1745 -0.3039
vn -0.5379 -0.3485 -0.7676
vn -0.6291 -0.4399 -0.6409
vn -0.7544 -0.3611 -0.5481
vn -0.8039 -0.4399 -0.4003
vn -0.8963 -0.3485 -0.2744
vn -0.9050 -0.3987 -0.1482
vn 0.9532 0.3024 -0.0000
vn 0.9846 0.0784 0.1560
vn 0.9854 0.1702 -0.0000
vn 0.9846 0.0784 -0.1560
vn 0.9831 -0.0962 0.1557
vn 0.9822 -0.1876 -0.0000
vn 0.9831 -0.0962 -0.1557
vn 0.9363 -0.1745 -0.3046
vn 0.8857 -0.4399 0.1487
vn 0.9325 -0.3611 -0.0000
vn 0.8857 -0.4399 -0.1487
vn 0.8864 -0.3485 -0.3049
vn 0.8193 -0.3987 -0.4121
vn 0.6153 -0.5545 -0.5603
vn 0.4674 -0.7594 -0.4526
vn 0.2627 -0.9158 -0.3039
vn 0.5087 -0.6369 -0.5792
vn 0.3854 -0.5955 -0.7049
vn 0.3105 -0.8363 -0.4519
vn 0.1876 -0.7947 -0.5773
vn 0.2287 -0.6726 -0.7038
vn 0.1026 -0.5955 -0.7968
vn 0.0891 -0.9575 -0.2744
vn -0.0339 -0.9158 -0.4003
vn 0.0144 -0.8363 -0.5481
vn -0.1121 -0.7594 -0.6409
vn -0.0711 -0.6369 -0.7676
vn -0.1685 -0.5545 -0.8149
vn -0.3427 -0.5545 -0.7583
vn -0.2860 -0.7594 -0.5843
vn -0.2079 -0.9158 -0.3438
vn -0.3936 -0.6369 -0.6628
vn -0.5513 -0.5955 -0.5843
vn -0.3338 -0.8363 -0.4350
vn -0.4911 -0.7947 -0.3568
vn -0.5987 -0.6726 -0.4350
vn -0.7261 -0.5955 -0.3438
vn -0.2334 -0.9575 -0.1696
vn -0.3912 -0.9158 -0.0915
vn -0.5168 -0.8363 -0.1830
vn -0.6441 -0.7594 -0.0915
vn -0.7520 -0.6369 -0.1696
vn -0.8271 -0.5545 -0.0916
vn -0.8271 -0.5545 0.0916
vn -0.6441 -0.7594 0.0915
vn -0.3912 -0.9158 0.0915
vn -0.7520 -0.6369 0.1696
vn -0.5168 -0.8363 0.1830
vn -0.2334 -0.9575 0.1696
vn 0.7230 -0.5545 -0.4121
vn 0.7895 -0.5955 -0.1487
vn 0.7895 -0.5955 0.1487
vn 0.7081 -0.6369 -0.3049
vn 0.5749 -0.7594 -0.3046
vn 0.7400 -0.6726 -0.0000
vn 0.6071 -0.7947 -0.0000
vn 0.5257 -0.8363 -0.1557
vn 0.3702 -0.9158 -0.1559
vn 0.5257 -0.8363 0.1557
vn 0.3702 -0.9158 0.1560
vn 0.2885 -0.9575 -0.0000
vn 0.1558 -0.9878 -0.0000
vt 0.181819 0.000000
vt 0.909091 0.000000
vt 0.727273 0.000000
vt 0.545455 0.000000
vt 0.363637 0.000000
vt 0.818182 0.157461
vt 0.636364 0.157461
vt 0.454546 0.157461
vt 0.727273 0.314921
vt 0.545455 0.314921
vt 0.363637 0.314921
vt 0.454546 0.472382
vt 0.636364 0.472382
vt 0.818182 0.472382
vt 0.090910 0.472382
vt 0.272728 0.472382
vt 0.159092 0.039365
vt 0.931818 0.039365
vt 0.204546 0.039365
vt 0.340910 0.039365
vt 0.318182 0.078731
vt 0.409092 0.157461
vt 0.363637 0.157461
vt 0.318182 0.157461
vt 0.522728 0.039365
vt 0.386364 0.039365
vt 0.500000 0.078731
vt 0.409091 0.078731
vt 0.477273 0.118096
vt 0.431819 0.118096
vt 0.795455 0.118096
vt 0.840909 0.118096
vt 0.772727 0.078731
vt 0.863636 0.078731
vt 0.750000 0.039365
vt 0.886364 0.039365
vt 0.863636 0.157461
vt 0.613637 0.118096
vt 0.659091 0.118096
vt 0.590909 0.078731
vt 0.681818 0.078731
vt 0.568182 0.039365
vt 0.704546 0.039365
vt 0.772727 0.157461
vt 0.727273 0.157461
vt 0.681818 0.157461
vt 0.590909 0.157461
vt 0.545455 0.157461
vt 0.500000 0.157461
vt 0.340910 0.275556
vt 0.318182 0.236191
vt 0.431819 0.196826
vt 0.409091 0.236191
vt 0.386364 0.275556
vt 0.863636 0.236191
vt 0.840909 0.196826
vt 0.704546 0.275556
vt 0.681818 0.236191
vt 0.659091 0.196826
vt 0.795455 0.196826
vt 0.772727 0.236191
vt 0.750000 0.275556
vt 0.522728 0.275556
vt 0.500000 0.236191
vt 0.477273 0.196826
vt 0.613637 0.196826
vt 0.590909 0.236191
vt 0.568182 0.275556
vt 0.318182 0.314921
vt 0.863636 0.314921
vt 0.818182 0.314921
vt 0.772727 0.314921
vt 0.681818 0.314921
vt 0.636364 0.314921
vt 0.590909 0.314921
vt 0.500000 0.314921
vt 0.454546 0.314921
vt 0.409091 0.314921
vt 0.113637 0.433017
vt 0.250001 0.433017
vt 0.386364 0.354286
vt 0.340910 0.354286
vt 0.409091 0.393651
vt 0.318182 0.393651
vt 0.431819 0.433017
vt 0.295455 0.433017
vt 0.840909 0.433017
vt 0.068182 0.433017
vt 0.863636 0.393651
vt 0.659091 0.433017
vt 0.795455 0.433017
vt 0.681818 0.393651
vt 0.772727 0.393651
vt 0.704546 0.354286
vt 0.750000 0.354286
vt 0.477273 0.433017
vt 0.613637 0.433017
vt 0.500000 0.393651
vt 0.590909 0.393651
vt 0.522728 0.354286
vt 0.568182 0.354286
vt 0.454546 0.393651
vt 0.431819 0.354286
vt 0.477273 0.354286
vt 0.636364 0.393651
vt 0.613637 0.354286
vt 0.659091 0.354286
vt 0.818182 0.393651
vt 0.795455 0.354286
vt 0.840909 0.354286
vt 0.272728 0.393651
vt 0.295455 0.354286
vt 0.431819 0.275556
vt 0.454546 0.236191
vt 0.477273 0.275556
vt 0.613637 0.275556
vt 0.636364 0.236191
vt 0.659091 0.275556
vt 0.795455 0.275556
vt 0.818182 0.236191
vt 0.840909 0.275556
vt 0.545455 0.236191
vt 0.522728 0.196826
vt 0.568182 0.196826
vt 0.727273 0.236191
vt 0.704546 0.196826
vt 0.750000 0.196826
vt 0.363637 0.236191
vt 0.340910 0.196826
vt 0.386364 0.196826
vt 0.522728 0.118096
vt 0.545455 0.078731
vt 0.568182 0.118096
vt 0.704546 0.118096
vt 0.727273 0.078731
vt 0.750000 0.118096
vt 0.886364 0.118096
vt 0.909091 0.078731
vt 0.386364 0.118096
vt 0.340910 0.118096
vt 0.363637 0.078730
s 0
f 1/1/1 10/19/1 9/17/1
f 1/2/2 9/18/2 20/36/2
f 1/3/3 20/35/3 24/43/3
f 1/4/4 24/42/4 15/25/4
f 2/6/5 21/37/5 37/56/5
f 3/7/6 27/46/6 40/59/6
f 4/8/7 30/49/7 46/65/7
f 2/6/8 37/56/8 41/60/8
f 3/7/9 40/59/9 47/66/9
f 4/8/10 46/65/10 33/52/10
f 5/9/11 53/72/11 68/95/11
f 6/10/12 56/75/12 71/101/12
f 7/11/13 59/78/13 61/81/13
f 63/85/14 69/96/14 8/12/14
f 62/83/15 72/102/15 63/85/15
f 61/81/16 73/103/16 62/83/16
f 63/85/17 72/102/17 69/96/17
f 72/102/18 70/98/18 69/96/18
f 62/83/19 73/103/19 72/102/19
f 73/103/20 74/104/20 72/102/20
f 72/102/21 74/104/21 70/98/21
f 74/104/22 71/100/22 70/98/22
f 61/81/23 59/78/23 73/103/23
f 59/78/24 58/77/24 73/103/24
f 73/103/25 58/77/25 74/104/25
f 58/77/26 57/76/26 74/104/26
f 74/104/27 57/76/27 71/100/27
f 57/76/28 6/10/28 71/100/28
f 69/97/29 66/90/29 8/13/29
f 70/99/30 75/105/30 69/97/30
f 71/101/31 76/106/31 70/99/31
f 69/97/32 75/105/32 66/90/32
f 75/105/33 67/92/33 66/90/33
f 70/99/34 76/106/34 75/105/34
f 76/106/35 77/107/35 75/105/35
f 75/105/36 77/107/36 67/92/36
f 77/107/37 68/94/37 67/92/37
f 71/101/38 56/75/38 76/106/38
f 56/75/39 55/74/39 76/106/39
f 76/106/40 55/74/40 77/107/40
f 55/74/41 54/73/41 77/107/41
f 77/107/42 54/73/42 68/94/42
f 54/73/43 5/9/43 68/94/43
f 66/91/44 64/87/44 8/14/44
f 67/93/45 78/108/45 66/91/45
f 68/95/46 79/109/46 67/93/46
f 66/91/47 78/108/47 64/87/47
f 78/108/48 65/89/48 64/87/48
f 67/93/49 79/109/49 78/108/49
f 79/109/50 80/110/50 78/108/50
f 78/108/51 80/110/51 65/89/51
f 68/95/52 53/72/52 79/109/52
f 53/72/53 52/71/53 79/109/53
f 79/109/54 52/71/54 80/110/54
f 52/71/55 51/70/55 80/110/55
f 64/88/56 60/79/56 8/15/56
f 60/80/57 63/86/57 8/16/57
f 60/80/58 81/111/58 63/86/58
f 81/111/59 62/84/59 63/86/59
f 81/111/60 82/112/60 62/84/60
f 82/112/61 61/82/61 62/84/61
f 82/112/62 50/69/62 61/82/62
f 50/69/63 7/11/63 61/82/63
f 35/54/64 59/78/64 7/11/64
f 34/53/65 83/113/65 35/54/65
f 33/52/66 84/114/66 34/53/66
f 35/54/67 83/113/67 59/78/67
f 83/113/68 58/77/68 59/78/68
f 34/53/69 84/114/69 83/113/69
f 84/114/70 85/115/70 83/113/70
f 83/113/71 85/115/71 58/77/71
f 85/115/72 57/76/72 58/77/72
f 33/52/73 46/65/73 84/114/73
f 46/65/74 45/64/74 84/114/74
f 84/114/75 45/64/75 85/115/75
f 45/64/76 44/63/76 85/115/76
f 85/115/77 44/63/77 57/76/77
f 44/63/78 6/10/78 57/76/78
f 49/68/79 56/75/79 6/10/79
f 48/67/80 86/116/80 49/68/80
f 47/66/81 87/117/81 48/67/81
f 49/68/82 86/116/82 56/75/82
f 86/116/83 55/74/83 56/75/83
f 48/67/84 87/117/84 86/116/84
f 87/117/85 88/118/85 86/116/85
f 86/116/86 88/118/86 55/74/86
f 88/118/87 54/73/87 55/74/87
f 47/66/88 40/59/88 87/117/88
f 40/59/89 39/58/89 87/117/89
f 87/117/90 39/58/90 88/118/90
f 39/58/91 38/57/91 88/118/91
f 88/118/92 38/57/92 54/73/92
f 38/57/93 5/9/93 54/73/93
f 43/62/94 53/72/94 5/9/94
f 42/61/95 89/119/95 43/62/95
f 41/60/96 90/120/96 42/61/96
f 43/62/97 89/119/97 53/72/97
f 89/119/98 52/71/98 53/72/98
f 42/61/99 90/120/99 89/119/99
f 90/120/100 91/121/100 89/119/100
f 89/119/101 91/121/101 52/71/101
f 91/121/102 51/70/102 52/71/102
f 41/60/103 37/56/103 90/120/103
f 37/56/104 36/55/104 90/120/104
f 90/120/105 36/55/105 91/121/105
f 31/50/106 7/11/106 50/69/106
f 44/63/107 49/68/107 6/10/107
f 45/64/108 92/122/108 44/63/108
f 46/65/109 93/123/109 45/64/109
f 44/63/110 92/122/110 49/68/110
f 92/122/111 48/67/111 49/68/111
f 45/64/112 93/123/112 92/122/112
f 93/123/113 94/124/113 92/122/113
f 92/122/114 94/124/114 48/67/114
f 94/124/115 47/66/115 48/67/115
f 46/65/116 30/49/116 93/123/116
f 30/49/117 29/48/117 93/123/117
f 93/123/118 29/48/118 94/124/118
f 29/48/119 28/47/119 94/124/119
f 94/124/120 28/47/120 47/66/120
f 28/47/121 3/7/121 47/66/121
f 38/57/122 43/62/122 5/9/122
f 39/58/123 95/125/123 38/57/123
f 40/59/124 96/126/124 39/58/124
f 38/57/125 95/125/125 43/62/125
f 95/125/126 42/61/126 43/62/126
f 39/58/127 96/126/127 95/125/127
f 96/126/128 97/127/128 95/125/128
f 95/125/129 97/127/129 42/61/129
f 97/127/130 41/60/130 42/61/130
f 40/59/131 27/46/131 96/126/131
f 27/46/132 26/45/132 96/126/132
f 96/126/133 26/45/133 97/127/133
f 26/45/134 25/44/134 97/127/134
f 97/127/135 25/44/135 41/60/135
f 25/44/136 2/6/136 41/60/136
f 31/50/137 35/54/137 7/11/137
f 32/51/138 98/128/138 31/50/138
f 31/50/139 98/128/139 35/54/139
f 98/128/140 34/53/140 35/54/140
f 32/51/141 99/129/141 98/128/141
f 99/129/142 100/130/142 98/128/142
f 98/128/143 100/130/143 34/53/143
f 100/130/144 33/52/144 34/53/144
f 14/24/145 13/23/145 99/129/145
f 99/129/146 13/23/146 100/130/146
f 13/23/147 12/22/147 100/130/147
f 100/130/148 12/22/148 33/52/148
f 12/22/149 4/8/149 33/52/149
f 17/29/150 30/49/150 4/8/150
f 16/27/151 101/131/151 17/29/151
f 15/25/152 102/132/152 16/27/152
f 17/29/153 101/131/153 30/49/153
f 101/131/154 29/48/154 30/49/154
f 16/27/155 102/132/155 101/131/155
f 102/132/156 103/133/156 101/131/156
f 101/131/157 103/133/157 29/48/157
f 103/133/158 28/47/158 29/48/158
f 15/25/159 24/42/159 102/132/159
f 24/42/160 23/40/160 102/132/160
f 102/132/161 23/40/161 103/133/161
f 23/40/162 22/38/162 103/133/162
f 103/133/163 22/38/163 28/47/163
f 22/38/164 3/7/164 28/47/164
f 22/39/165 27/46/165 3/7/165
f 23/41/166 104/134/166 22/39/166
f 24/43/167 105/135/167 23/41/167
f 22/39/168 104/134/168 27/46/168
f 104/134/169 26/45/169 27/46/169
f 23/41/170 105/135/170 104/134/170
f 105/135/171 106/136/171 104/134/171
f 104/134/172 106/136/172 26/45/172
f 106/136/173 25/44/173 26/45/173
f 24/43/174 20/35/174 105/135/174
f 20/35/175 19/33/175 105/135/175
f 105/135/176 19/33/176 106/136/176
f 19/33/177 18/31/177 106/136/177
f 106/136/178 18/31/178 25/44/178
f 18/31/179 2/6/179 25/44/179
f 18/32/180 21/37/180 2/6/180
f 19/34/181 107/137/181 18/32/181
f 20/36/182 108/138/182 19/34/182
f 18/32/183 107/137/183 21/37/183
f 19/34/184 108/138/184 107/137/184
f 20/36/185 9/18/185 108/138/185
f 12/22/186 17/30/186 4/8/186
f 13/23/187 109/139/187 12/22/187
f 14/24/188 110/140/188 13/23/188
f 12/22/189 109/139/189 17/30/189
f 109/139/190 16/28/190 17/30/190
f 13/23/191 110/140/191 109/139/191
f 110/140/192 111/141/192 109/139/192
f 109/139/193 111/141/193 16/28/193
f 111/141/194 15/26/194 16/28/194
f 110/140/195 11/21/195 111/141/195
f 11/21/196 10/20/196 111/141/196
f 111/141/197 10/20/197 15/26/197
f 10/20/198 1/5/198 15/26/198
