# Blender 3.3.1
# www.blender.org
mtllib doorstiny down.mtl
o Cube.001
v -0.500000 -0.500000 1.000000
v -0.300000 0.500000 1.000000
v -0.500000 -0.500000 -1.000000
v -0.300000 0.500000 -1.000000
v 0.500000 -0.500000 1.000000
v 0.300000 0.500000 1.000000
v 0.500000 -0.500000 -1.000000
v 0.300000 0.500000 -1.000000
v -0.500000 0.000000 3.000000
v -0.500000 1.500000 3.000000
v 0.500000 1.500000 3.000000
v 0.500000 0.000000 3.000000
v -0.500000 1.500000 -3.000000
v -0.500000 0.000000 -3.000000
v 0.500000 0.000000 -3.000000
v 0.500000 1.500000 -3.000000
v -0.500000 0.000000 4.000000
v -0.500000 1.500000 4.000000
v 0.500000 1.500000 4.000000
v 0.500000 0.000000 4.000000
v -0.500000 1.500000 -4.000000
v -0.500000 0.000000 -4.000000
v 0.500000 0.000000 -4.000000
v 0.500000 1.500000 -4.000000
v -0.300000 0.500000 1.000000
v -0.300000 0.500000 -1.000000
v 0.300000 0.500000 1.000000
v 0.300000 0.500000 -1.000000
v 0.500000 2.000000 3.000000
v -0.500000 2.000000 3.000000
v -0.500000 2.000000 -3.000000
v 0.500000 2.000000 -3.000000
v 0.500000 2.000000 4.000000
v -0.500000 2.000000 4.000000
v -0.500000 2.000000 -4.000000
v 0.500000 2.000000 -4.000000
v -0.300000 1.000000 -1.000000
v 0.300000 1.000000 -1.000000
v 0.300000 1.000000 1.000000
v -0.300000 1.000000 1.000000
v 0.500000 2.000000 3.000000
v -0.500000 2.000000 3.000000
v -0.500000 2.000000 -3.000000
v 0.500000 2.000000 -3.000000
v -0.300000 1.000000 -1.000000
v 0.300000 1.000000 -1.000000
v 0.300000 1.000000 1.000000
v -0.300000 1.000000 1.000000
v 0.150000 0.500000 1.000000
v 0.150000 0.500000 -1.000000
v -0.150000 0.500000 -1.000000
v -0.150000 0.500000 1.000000
v 0.150000 0.500000 1.000000
v 0.150000 0.500000 -1.000000
v -0.150000 0.500000 -1.000000
v -0.150000 0.500000 1.000000
v 0.150000 1.000000 1.000000
v 0.150000 1.000000 -1.000000
v -0.150000 1.000000 -1.000000
v -0.150000 1.000000 1.000000
v -0.500000 -1.000000 1.000000
v -0.500000 -1.000000 -1.000000
v 0.500000 -1.000000 1.000000
v 0.500000 -1.000000 -1.000000
v -0.500000 -1.000000 3.000000
v 0.500000 -1.000000 3.000000
v -0.500000 -1.000000 -3.000000
v 0.500000 -1.000000 -3.000000
v -0.500000 -1.000000 4.000000
v 0.500000 -1.000000 4.000000
v -0.500000 -1.000000 -4.000000
v 0.500000 -1.000000 -4.000000
vn -0.9806 0.1961 -0.0000
vn -0.0000 -0.0000 -1.0000
vn 0.9806 0.1961 -0.0000
vn -0.9950 -0.0000 -0.0995
vn -1.0000 -0.0000 -0.0000
vn -0.0000 1.0000 -0.0000
vn 1.0000 -0.0000 -0.0000
vn 0.9937 0.0795 -0.0795
vn -0.9937 0.0795 -0.0795
vn -0.9937 0.0795 0.0795
vn 0.9937 0.0795 0.0795
vn -0.0000 -0.0000 1.0000
vn -0.0000 0.8944 0.4472
vn -0.0000 0.8944 -0.4472
vn 0.9950 -0.0000 -0.0995
vn 0.9950 -0.0000 0.0995
vn -0.9950 -0.0000 0.0995
vn -0.0000 -1.0000 -0.0000
vt 0.375000 0.000000
vt 0.625000 0.000000
vt 0.375000 0.250000
vt 0.625000 0.250000
vt 0.375000 0.750000
vt 0.625000 0.750000
vt 0.375000 0.500000
vt 0.625000 0.500000
vt 0.375000 0.000000
vt 0.625000 0.000000
vt 0.875000 0.750000
vt 0.625000 0.750000
vt 0.375000 0.750000
vt 0.875000 0.500000
vt 0.625000 0.250000
vt 0.375000 0.250000
vt 0.375000 0.500000
vt 0.625000 0.500000
vt 0.375000 0.000000
vt 0.375000 1.000000
vt 0.625000 0.000000
vt 0.625000 1.000000
vt 0.625000 0.750000
vt 0.375000 0.750000
vt 0.625000 0.250000
vt 0.375000 0.250000
vt 0.375000 0.500000
vt 0.625000 0.500000
vt 0.625000 0.000000
vt 0.875000 0.750000
vt 0.625000 0.250000
vt 0.875000 0.500000
vt 0.625000 0.750000
vt 0.625000 0.500000
vt 0.625000 0.750000
vt 0.875000 0.750000
vt 0.625000 0.000000
vt 0.625000 0.250000
vt 0.875000 0.500000
vt 0.625000 0.500000
vt 0.625000 0.750000
vt 0.875000 0.750000
vt 0.625000 0.000000
vt 0.625000 1.000000
vt 0.875000 0.500000
vt 0.625000 0.250000
vt 0.625000 0.500000
vt 0.875000 0.500000
vt 0.625000 0.250000
vt 0.625000 0.500000
vt 0.625000 0.750000
vt 0.625000 0.000000
vt 0.875000 0.750000
vt 0.625000 0.750000
vt 0.625000 0.000000
vt 0.875000 0.750000
vt 0.875000 0.500000
vt 0.625000 0.250000
vt 0.625000 0.500000
vt 0.625000 0.250000
vt 0.875000 0.500000
vt 0.625000 0.500000
vt 0.625000 0.750000
vt 0.625000 0.000000
vt 0.875000 0.750000
vt 0.625000 0.000000
vt 0.875000 0.750000
vt 0.625000 0.250000
vt 0.875000 0.500000
vt 0.625000 0.500000
vt 0.625000 0.750000
vt 0.875000 0.750000
vt 0.625000 0.000000
vt 0.875000 0.500000
vt 0.625000 0.250000
vt 0.625000 0.500000
vt 0.625000 0.750000
vt 0.875000 0.750000
vt 0.625000 0.000000
vt 0.875000 0.500000
vt 0.625000 0.250000
vt 0.625000 0.500000
vt 0.625000 0.750000
vt 0.125000 0.750000
vt 0.375000 0.000000
vt 0.125000 0.500000
vt 0.375000 0.250000
vt 0.375000 0.750000
vt 0.375000 0.500000
vt 0.125000 0.750000
vt 0.375000 0.000000
vt 0.375000 0.750000
vt 0.125000 0.500000
vt 0.375000 0.250000
vt 0.375000 0.500000
vt 0.375000 0.000000
vt 0.375000 1.000000
vt 0.125000 0.750000
vt 0.375000 0.750000
vt 0.125000 0.500000
vt 0.375000 0.250000
vt 0.375000 0.500000
s 0
f 1/1/1 2/2/1 4/4/1 3/3/1
f 27/33/2 25/30/2 48/65/2 47/63/2
f 7/7/3 8/8/3 6/6/3 5/5/3
f 2/2/4 10/10/4 42/55/4 40/52/4
f 1/1/5 3/3/5 62/87/5 61/85/5
f 6/6/6 8/8/6 28/34/6 27/33/6
f 12/13/7 11/12/7 19/23/7 20/24/7
f 5/5/8 6/6/8 11/12/8 12/13/8
f 2/2/9 1/1/9 9/9/9 10/10/9
f 17/19/5 9/9/5 65/91/5 69/96/5
f 21/25/5 13/15/5 31/38/5 35/46/5
f 3/3/10 4/4/10 13/15/10 14/16/10
f 8/8/11 7/7/11 15/17/11 16/18/11
f 15/17/7 7/7/7 64/89/7 68/95/7
f 20/24/12 19/23/12 18/22/12 17/20/12
f 22/26/2 23/27/2 72/102/2 71/101/2
f 10/10/5 9/9/5 17/19/5 18/21/5
f 19/23/7 11/12/7 29/35/7 33/41/7
f 22/26/2 21/25/2 24/28/2 23/27/2
f 14/16/5 13/15/5 21/25/5 22/26/5
f 16/18/7 15/17/7 23/27/7 24/28/7
f 20/24/12 17/20/12 69/97/12 70/99/12
f 27/33/6 28/34/6 51/70/6 52/71/6
f 4/4/6 2/2/6 25/29/6 26/31/6
f 25/29/6 2/2/6 40/52/6 48/64/6
f 16/18/2 13/14/2 43/57/2 44/59/2
f 31/39/6 32/40/6 36/47/6 35/45/6
f 29/35/6 30/36/6 34/42/6 33/41/6
f 11/12/2 10/11/2 30/36/2 29/35/2
f 10/10/5 18/21/5 34/43/5 30/37/5
f 13/14/12 16/18/12 32/40/12 31/39/12
f 18/22/12 19/23/12 33/41/12 34/44/12
f 16/18/7 24/28/7 36/47/7 32/40/7
f 24/28/2 21/25/2 35/46/2 36/47/2
f 37/48/13 38/50/13 44/59/13 43/57/13
f 39/51/14 40/53/14 42/56/14 41/54/14
f 40/53/6 39/51/6 47/63/6 48/65/6
f 38/50/6 37/48/6 45/61/6 46/62/6
f 4/4/6 26/31/6 45/60/6 37/49/6
f 11/12/15 6/6/15 39/51/15 41/54/15
f 8/8/16 16/18/16 44/59/16 38/50/16
f 28/34/6 8/8/6 38/50/6 46/62/6
f 26/32/12 28/34/12 46/62/12 45/61/12
f 13/15/17 4/4/17 37/49/17 43/58/17
f 6/6/6 27/33/6 47/63/6 39/51/6
f 10/11/12 11/12/12 41/54/12 42/56/12
f 50/68/6 49/66/6 53/73/6 54/75/6
f 26/31/6 25/29/6 49/66/6 50/68/6
f 25/30/6 27/33/6 52/71/6 49/67/6
f 28/34/6 26/32/6 50/69/6 51/70/6
f 53/72/2 56/77/2 60/83/2 57/78/2
f 49/67/6 52/71/6 56/77/6 53/72/6
f 51/70/6 50/69/6 54/74/6 55/76/6
f 52/71/6 51/70/6 55/76/6 56/77/6
f 59/82/18 58/80/18 57/78/18 60/83/18
f 55/76/12 54/74/12 58/80/12 59/82/12
f 56/77/7 55/76/7 59/82/7 60/83/7
f 54/75/5 53/73/5 57/79/5 58/81/5
f 62/86/18 64/89/18 63/88/18 61/84/18
f 61/84/18 63/88/18 66/92/18 65/90/18
f 64/89/18 62/86/18 67/93/18 68/95/18
f 65/90/18 66/92/18 70/99/18 69/98/18
f 68/95/18 67/93/18 71/100/18 72/102/18
f 7/7/7 5/5/7 63/88/7 64/89/7
f 5/5/7 12/13/7 66/92/7 63/88/7
f 14/16/5 22/26/5 71/101/5 67/94/5
f 9/9/5 1/1/5 61/85/5 65/91/5
f 23/27/7 15/17/7 68/95/7 72/102/7
f 3/3/5 14/16/5 67/94/5 62/87/5
f 12/13/7 20/24/7 70/99/7 66/92/7
