# Blender 4.2.3 LTS
# www.blender.org
mtllib keypad.mtl
o Cube
v -1.000000 -3.000000 2.000000
v -1.000000 3.000000 2.000000
v -1.000000 -3.000000 -2.000000
v -1.000000 3.000000 -2.000000
v 1.000000 -3.000000 2.000000
v 1.000000 3.000000 2.000000
v 1.000000 -3.000000 -2.000000
v 1.000000 3.000000 -2.000000
v 1.000000 3.000000 -2.000000
v 1.000000 -3.000000 -2.000000
v 1.000000 -3.000000 2.000000
v 1.000000 3.000000 2.000000
v 0.803083 2.322500 -1.494077
v 0.803083 1.429466 -1.494077
v 0.803083 1.429466 1.494077
v 0.803083 2.322500 1.494077
v 1.000000 2.784011 -1.784011
v 0.936177 2.720189 -1.720188
v 0.936177 -2.720189 -1.720188
v 1.000000 -2.784011 -1.784011
v 0.936177 -2.720189 1.720188
v 1.000000 -2.784011 1.784011
v 1.000000 2.784011 1.784011
v 0.936177 2.720189 1.720188
v 0.803083 2.720189 -1.720188
v 0.803083 -2.720189 -1.720188
v 0.803083 -2.720189 1.720188
v 0.803083 2.720189 1.720188
v 0.913241 2.322500 -1.494077
v 0.913241 1.429466 -1.494077
v 0.913241 1.429466 1.494077
v 0.913241 2.322500 1.494077
v -1.000000 3.214411 1.400000
v -1.000000 3.214411 -1.400000
v 1.000000 3.214411 -1.400000
v 1.000000 3.214411 1.400000
v -1.304346 -2.680022 -1.786681
v -1.304346 -2.680022 1.786681
v -1.304346 2.680022 1.786681
v -1.304346 2.680022 -1.786681
vn -0.7246 0.6892 -0.0000
vn -0.0000 -0.0000 -1.0000
vn -0.0000 1.0000 -0.0000
vn -0.0000 -0.0000 1.0000
vn -0.0000 -1.0000 -0.0000
vn 1.0000 -0.0000 -0.0000
vn 0.7071 -0.0000 0.7071
vn 0.7071 0.7071 -0.0000
vn 0.7071 -0.7071 -0.0000
vn 0.7071 -0.0000 -0.7071
vn -1.0000 -0.0000 -0.0000
vn -0.0000 0.9417 0.3365
vn -0.0000 0.9417 -0.3365
vn -0.7246 -0.6892 -0.0000
vn -0.5740 -0.0000 -0.8189
vn -0.5740 -0.0000 0.8189
vt 0.625000 0.000000
vt 0.625000 0.250000
vt 0.375000 0.250000
vt 0.625000 0.500000
vt 0.375000 0.500000
vt 0.000000 0.000000
vt 0.375000 0.750000
vt 0.625000 0.750000
vt 0.625000 1.000000
vt 0.375000 1.000000
vt 0.125000 0.500000
vt 0.125000 0.750000
vt 0.616000 0.736501
vt 0.616000 0.513499
vt 0.613341 0.517488
vt 0.613341 0.732512
vt 0.386659 0.732512
vt 0.386659 0.517488
vt 0.386659 0.517488
vt 0.603920 0.531620
vt 0.603920 0.718380
vt 0.384000 0.513499
vt 0.383999 0.736501
vt 0.396080 0.531620
vt 0.396080 0.718380
vt 0.875000 0.500000
vt 0.875000 0.750000
vt 0.375000 0.000000
s 0
usemtl Material.001
f 2/1/1 4/2/1 40/2/1 39/1/1
f 3/3/2 4/2/2 8/4/2 7/5/2
f 6/6/3 5/6/3 11/6/3 12/6/3
f 5/7/4 6/8/4 2/9/4 1/10/4
f 3/11/5 7/5/5 5/7/5 1/12/5
f 6/8/6 8/4/6 35/4/6 36/8/6
f 23/13/6 17/14/6 9/4/6 12/8/6
f 5/7/3 7/5/3 10/5/3 11/7/3
f 8/4/3 6/8/3 12/8/3 9/4/3
f 7/6/3 8/6/3 9/6/3 10/6/3
f 18/15/5 24/16/5 28/16/5 25/15/5
f 24/16/2 21/17/2 27/17/2 28/16/2
f 21/17/3 19/18/3 26/19/3 27/17/3
f 13/20/3 16/21/3 32/21/3 29/20/3
f 17/14/6 20/22/6 10/5/6 9/4/6
f 22/23/6 23/13/6 12/8/6 11/7/6
f 20/22/6 22/23/6 11/7/6 10/5/6
f 18/15/7 19/18/7 20/22/7 17/14/7
f 22/23/8 20/22/8 19/18/8 21/17/8
f 17/14/9 23/13/9 24/16/9 18/15/9
f 23/13/10 22/23/10 21/17/10 24/16/10
f 19/18/4 18/15/4 25/15/4 26/19/4
f 13/20/6 14/24/6 26/19/6 25/15/6
f 14/24/6 15/25/6 27/17/6 26/19/6
f 16/21/6 13/20/6 25/15/6 28/16/6
f 15/25/6 16/21/6 28/16/6 27/17/6
f 30/24/6 29/20/6 32/21/6 31/25/6
f 14/24/2 13/20/2 29/20/2 30/24/2
f 16/21/4 15/25/4 31/25/4 32/21/4
f 15/25/5 14/24/5 30/24/5 31/25/5
f 35/4/3 34/26/3 33/27/3 36/8/3
f 4/2/11 2/1/11 33/1/11 34/2/11
f 2/9/12 6/8/12 36/8/12 33/9/12
f 8/4/13 4/2/13 34/2/13 35/4/13
f 38/28/11 39/1/11 40/2/11 37/3/11
f 3/11/14 1/12/14 38/12/14 37/11/14
f 4/2/15 3/3/15 37/3/15 40/2/15
f 1/10/16 2/9/16 39/9/16 38/10/16
