# Blender 3.3.1
# www.blender.org
mtllib paper.mtl
o Cube
v -1.311105 -0.003487 0.984906
v -1.311105 0.032868 0.984906
v -1.311105 -0.003487 -0.984906
v -1.311105 0.032868 -0.984906
v 1.311105 -0.003487 0.984906
v 1.311105 0.032868 0.984906
v 1.311105 -0.003487 -0.984906
v 1.311105 0.032868 -0.984906
v 0.672495 0.006272 -0.984906
v 0.672495 0.042627 -0.984906
v 0.672495 0.006272 0.984906
v 0.672495 0.042627 0.984906
v -0.859200 -0.006179 -0.984906
v -0.859200 0.030176 0.984906
v -0.859200 0.030176 -0.984906
v -0.859200 -0.006179 0.984906
v -0.419382 0.032868 -0.984906
v -0.419382 -0.003487 0.984906
v -0.419382 -0.003487 -0.984906
v -0.419382 0.032868 0.984906
v 0.273678 0.043300 -0.984906
v 0.273678 0.006945 0.984906
v 0.273678 0.006945 -0.984906
v 0.273678 0.043300 0.984906
v -1.311105 -0.010891 0.406580
v -1.311105 0.025464 0.406580
v 1.311105 -0.010891 0.406580
v 1.311105 0.025464 0.406580
v 0.672495 0.035224 0.406580
v 0.672495 -0.001132 0.406580
v -0.859200 -0.013583 0.406580
v -0.859200 0.022772 0.406580
v -0.419382 0.025464 0.406580
v -0.419382 -0.010891 0.406580
v 0.273678 0.035897 0.406580
v 0.273678 -0.000459 0.406580
v -1.311105 0.047675 -0.467911
v 1.311105 0.011320 -0.467911
v -1.311105 0.011320 -0.467911
v 1.311105 0.047675 -0.467911
v 0.672495 0.057434 -0.467911
v 0.672495 0.021079 -0.467911
v -0.859200 0.008628 -0.467911
v -0.859200 0.044983 -0.467911
v -0.419382 0.047675 -0.467911
v -0.419382 0.011320 -0.467911
v 0.273678 0.058107 -0.467911
v 0.273678 0.021752 -0.467911
vn -0.7153 -0.6988 0.0011
vn -0.6990 0.7152 -0.0012
vn -0.5773 0.5701 -0.5845
vn -0.5774 -0.5844 -0.5701
vn -0.0061 -0.7156 -0.6985
vn 0.0059 0.6984 -0.7157
vn 0.5828 0.5635 -0.5855
vn 0.5718 -0.5911 -0.5689
vn 0.6974 -0.7167 -0.0045
vn 0.7168 0.6973 0.0044
vn 0.5807 0.5765 0.5748
vn 0.5740 -0.5781 0.5799
vn 0.0001 -0.7039 0.7103
vn -0.0001 0.7103 0.7039
vn -0.5751 0.5832 0.5737
vn -0.5796 -0.5714 0.5810
vn -0.0085 -0.9999 -0.0063
vn -0.0059 -0.7010 0.7131
vn -0.0001 1.0000 0.0063
vn -0.7093 0.7049 0.0044
vn 0.0085 0.9999 0.0063
vn 0.0060 0.7131 0.7010
vn 0.0067 -1.0000 -0.0063
vn 0.0047 -0.7006 0.7135
vn 0.0048 -0.7153 -0.6988
vn -0.0047 0.6988 -0.7153
vn -0.0001 0.6955 -0.7185
vn 0.0001 -0.7185 -0.6955
vn -0.7049 -0.7092 -0.0045
vn 0.0001 -1.0000 -0.0063
vn -0.0106 0.9999 0.0063
vn -0.0075 0.7106 0.7036
vn 0.0074 -0.7035 0.7106
vn -0.0048 0.7135 0.7007
vn -0.0067 1.0000 0.0063
vn -0.0074 0.6959 -0.7181
vn 0.0076 -0.7181 -0.6959
vn 0.0106 -0.9999 -0.0063
vn 0.0106 -0.9999 0.0016
vn 0.0067 -1.0000 0.0016
vn 0.0085 1.0000 -0.0016
vn -0.0067 1.0000 -0.0016
vn 0.0001 -1.0000 0.0016
vn -0.0106 0.9999 -0.0016
vn -0.0001 1.0000 -0.0016
vn -0.0085 -1.0000 0.0016
vn 0.7065 0.7077 -0.0011
vn 0.7079 -0.7064 0.0011
vt 0.375000 1.000000
vt 0.125000 0.750000
vt 0.375000 0.000000
vt 0.625000 1.000000
vt 0.875000 0.750000
vt 0.625000 0.000000
vt 0.375000 0.250000
vt 0.125000 0.500000
vt 0.625000 0.250000
vt 0.875000 0.500000
vt 0.375000 0.750000
vt 0.625000 0.750000
vt 0.375000 0.500000
vt 0.625000 0.500000
vt 0.375000 0.439115
vt 0.314115 0.500000
vt 0.625000 0.439115
vt 0.685885 0.500000
vt 0.314115 0.750000
vt 0.375000 0.810885
vt 0.685885 0.750000
vt 0.625000 0.810885
vt 0.375000 0.293084
vt 0.168084 0.500000
vt 0.831916 0.750000
vt 0.625000 0.956916
vt 0.625000 0.293084
vt 0.831916 0.500000
vt 0.375000 0.956916
vt 0.168084 0.750000
vt 0.625000 0.335016
vt 0.789984 0.500000
vt 0.375000 0.914984
vt 0.210016 0.750000
vt 0.375000 0.335016
vt 0.210016 0.500000
vt 0.625000 0.914984
vt 0.789984 0.750000
vt 0.625000 0.401092
vt 0.723908 0.500000
vt 0.375000 0.848908
vt 0.276092 0.750000
vt 0.375000 0.401092
vt 0.276092 0.500000
vt 0.723908 0.750000
vt 0.625000 0.848908
vt 0.125000 0.676601
vt 0.375000 0.073399
vt 0.875000 0.676601
vt 0.625000 0.073399
vt 0.375000 0.676601
vt 0.625000 0.676601
vt 0.685885 0.676601
vt 0.314115 0.676601
vt 0.168084 0.676601
vt 0.831916 0.676601
vt 0.789984 0.676601
vt 0.210016 0.676601
vt 0.723908 0.676601
vt 0.276092 0.676601
vt 0.875000 0.565615
vt 0.625000 0.184385
vt 0.375000 0.565615
vt 0.125000 0.565615
vt 0.375000 0.184385
vt 0.625000 0.565615
vt 0.685885 0.565615
vt 0.314115 0.565615
vt 0.168084 0.565615
vt 0.831916 0.565615
vt 0.789984 0.565615
vt 0.210016 0.565615
vt 0.723908 0.565615
vt 0.276092 0.565615
s 1
f 39/65/1 37/62/2 4/9/3 3/7/4
f 9/15/5 10/17/6 8/14/7 7/13/8
f 27/51/9 28/52/10 6/12/11 5/11/12
f 16/29/13 14/26/14 2/4/15 1/1/16
f 30/54/17 27/51/9 5/11/12 11/19/18
f 32/56/19 26/49/20 2/5/15 14/25/14
f 28/52/10 29/53/21 12/21/22 6/12/11
f 36/60/23 30/54/17 11/19/18 22/42/24
f 5/11/12 6/12/11 12/22/22 11/20/18
f 23/43/25 21/39/26 10/17/6 9/15/5
f 3/7/4 4/9/3 15/27/27 13/23/28
f 25/47/29 31/55/30 16/30/13 1/2/16
f 33/57/31 32/56/19 14/25/14 20/38/32
f 18/33/33 20/37/32 14/26/14 16/29/13
f 22/41/24 24/46/34 20/37/32 18/33/33
f 35/59/35 33/57/31 20/38/32 24/45/34
f 13/23/28 15/27/27 17/31/36 19/35/37
f 31/55/30 34/58/38 18/34/33 16/30/13
f 29/53/21 35/59/35 24/45/34 12/21/22
f 11/20/18 12/22/22 24/46/34 22/41/24
f 19/35/37 17/31/36 21/39/26 23/43/25
f 34/58/38 36/60/23 22/42/24 18/34/33
f 46/72/39 48/74/40 36/60/23 34/58/38
f 41/67/41 47/73/42 35/59/35 29/53/21
f 43/69/43 46/72/39 34/58/38 31/55/30
f 47/73/42 45/71/44 33/57/31 35/59/35
f 45/71/44 44/70/45 32/56/19 33/57/31
f 39/64/1 43/69/43 31/55/30 25/47/29
f 48/74/40 42/68/46 30/54/17 36/60/23
f 40/66/47 41/67/41 29/53/21 28/52/10
f 44/70/45 37/61/2 26/49/20 32/56/19
f 42/68/46 38/63/48 27/51/9 30/54/17
f 38/63/48 40/66/47 28/52/10 27/51/9
f 1/3/16 2/6/15 26/50/20 25/48/29
f 7/13/8 8/14/7 40/66/47 38/63/48
f 9/16/5 7/13/8 38/63/48 42/68/46
f 15/28/27 4/10/3 37/61/2 44/70/45
f 8/14/7 10/18/6 41/67/41 40/66/47
f 23/44/25 9/16/5 42/68/46 48/74/40
f 3/8/4 13/24/28 43/69/43 39/64/1
f 17/32/36 15/28/27 44/70/45 45/71/44
f 21/40/26 17/32/36 45/71/44 47/73/42
f 13/24/28 19/36/37 46/72/39 43/69/43
f 10/18/6 21/40/26 47/73/42 41/67/41
f 19/36/37 23/44/25 48/74/40 46/72/39
f 25/48/29 26/50/20 37/62/2 39/65/1
