# Blender 4.2.3 LTS
# www.blender.org
mtllib spray.mtl
o Cylinder.001
v 0.000000 -0.808523 -0.424887
v 0.000000 3.000000 -1.000000
v 0.162597 -0.808523 -0.392545
v 0.382683 3.000000 -0.923880
v 0.300441 -0.808523 -0.300441
v 0.707107 3.000000 -0.707107
v 0.392545 -0.808523 -0.162597
v 0.923880 3.000000 -0.382683
v 0.424887 -0.808523 0.000000
v 1.000000 3.000000 0.000000
v 0.392545 -0.808523 0.162597
v 0.923880 3.000000 0.382683
v 0.300441 -0.808523 0.300441
v 0.707107 3.000000 0.707107
v 0.162597 -0.808523 0.392545
v 0.382683 3.000000 0.923880
v 0.000000 -0.808523 0.424887
v 0.000000 3.000000 1.000000
v -0.162597 -0.808523 0.392545
v -0.382683 3.000000 0.923880
v -0.300441 -0.808523 0.300441
v -0.707107 3.000000 0.707107
v -0.392545 -0.808523 0.162597
v -0.923880 3.000000 0.382683
v -0.424887 -0.808523 0.000000
v -1.000000 3.000000 0.000000
v -0.392545 -0.808523 -0.162597
v -0.923880 3.000000 -0.382683
v -0.300441 -0.808523 -0.300441
v -0.707107 3.000000 -0.707107
v -0.162597 -0.808523 -0.392545
v -0.382683 3.000000 -0.923880
v 0.000000 3.400000 -0.524819
v 0.200839 3.400000 -0.484869
v 0.371103 3.400000 -0.371103
v 0.484869 3.400000 -0.200839
v 0.524819 3.400000 0.000000
v 0.484869 3.400000 0.200840
v 0.371103 3.400000 0.371103
v 0.200839 3.400000 0.484869
v 0.000000 3.400000 0.524819
v -0.200839 3.400000 0.484869
v -0.371103 3.400000 0.371103
v -0.484869 3.400000 0.200840
v -0.524819 3.400000 0.000000
v -0.484869 3.400000 -0.200839
v -0.371103 3.400000 -0.371103
v -0.200839 3.400000 -0.484869
v 0.000000 3.454136 -0.182650
v 0.069897 3.454136 -0.168747
v 0.129153 3.454136 -0.129153
v 0.168747 3.454136 -0.069897
v 0.182650 3.454136 0.000000
v 0.168747 3.454136 0.069897
v 0.129153 3.454136 0.129153
v 0.069897 3.454136 0.168747
v 0.000000 3.454136 0.182650
v -0.069897 3.454136 0.168747
v -0.129153 3.454136 0.129153
v -0.168747 3.454136 0.069897
v -0.182650 3.454136 0.000000
v -0.168747 3.454136 -0.069897
v -0.129153 3.454136 -0.129153
v -0.069897 3.454136 -0.168747
v 0.200839 3.454136 -0.484869
v 0.000000 3.454136 -0.524819
v 0.371103 3.454136 -0.371103
v 0.484869 3.454136 -0.200839
v 0.524819 3.454136 0.000000
v 0.484869 3.454136 0.200840
v 0.371103 3.454136 0.371103
v 0.200839 3.454136 0.484869
v 0.000000 3.454136 0.524819
v -0.200839 3.454136 0.484869
v -0.371103 3.454136 0.371103
v -0.484869 3.454136 0.200840
v -0.524819 3.454136 0.000000
v -0.484869 3.454136 -0.200839
v -0.371103 3.454136 -0.371103
v -0.200839 3.454136 -0.484869
v 0.000000 3.798638 -0.182650
v 0.069897 3.798638 -0.168747
v 0.129153 3.798638 -0.129153
v 0.168747 3.798638 -0.069897
v 0.182650 3.798638 0.000000
v 0.168747 3.798638 0.069897
v 0.129153 3.798638 0.129153
v 0.069897 3.798638 0.168747
v 0.000000 3.798638 0.182650
v -0.069897 3.798638 0.168747
v -0.129153 3.798638 0.129153
v -0.168747 3.798638 0.069897
v -0.182650 3.798638 0.000000
v -0.168747 3.798638 -0.069897
v -0.129153 3.798638 -0.129153
v -0.069897 3.798638 -0.168747
v 0.000000 -1.000000 -1.000000
v 0.382683 -1.000000 -0.923880
v 0.707107 -1.000000 -0.707107
v 0.923880 -1.000000 -0.382683
v 1.000000 -1.000000 0.000000
v 0.923880 -1.000000 0.382683
v 0.707107 -1.000000 0.707107
v 0.382683 -1.000000 0.923880
v 0.000000 -1.000000 1.000000
v -0.382683 -1.000000 0.923880
v -0.707107 -1.000000 0.707107
v -0.923880 -1.000000 0.382683
v -1.000000 -1.000000 0.000000
v -0.923880 -1.000000 -0.382683
v -0.707107 -1.000000 -0.707107
v -0.382683 -1.000000 -0.923880
v 0.000000 -1.000000 -0.914114
v 0.349816 -1.000000 -0.844531
v 0.646376 -1.000000 -0.646376
v 0.844531 -1.000000 -0.349816
v 0.914114 -1.000000 0.000000
v 0.844531 -1.000000 0.349816
v 0.646376 -1.000000 0.646376
v 0.349816 -1.000000 0.844531
v 0.000000 -1.000000 0.914114
v -0.349816 -1.000000 0.844531
v -0.646376 -1.000000 0.646376
v -0.844531 -1.000000 0.349816
v -0.914114 -1.000000 0.000000
v -0.844531 -1.000000 -0.349816
v -0.646376 -1.000000 -0.646376
v -0.349816 -1.000000 -0.844531
v 0.000000 -0.916399 -0.665671
v 0.254741 -0.916399 -0.615000
v 0.470701 -0.916399 -0.470701
v 0.615000 -0.916399 -0.254741
v 0.665671 -0.916399 0.000000
v 0.615000 -0.916399 0.254741
v 0.470701 -0.916399 0.470701
v 0.254741 -0.916399 0.615000
v 0.000000 -0.916399 0.665671
v -0.254741 -0.916399 0.615000
v -0.470701 -0.916399 0.470701
v -0.615000 -0.916399 0.254741
v -0.665671 -0.916399 0.000000
v -0.615000 -0.916399 -0.254741
v -0.470701 -0.916399 -0.470701
v -0.254741 -0.916399 -0.615000
vn 0.1951 -0.0000 -0.9808
vn 0.5556 -0.0000 -0.8315
vn 0.8315 -0.0000 -0.5556
vn 0.9808 -0.0000 -0.1951
vn 0.9808 -0.0000 0.1951
vn 0.8315 -0.0000 0.5556
vn 0.5556 -0.0000 0.8315
vn 0.1951 -0.0000 0.9808
vn -0.1951 -0.0000 0.9808
vn -0.5556 -0.0000 0.8315
vn -0.8315 -0.0000 0.5556
vn -0.9808 -0.0000 0.1951
vn -0.9808 -0.0000 -0.1951
vn -0.8315 -0.0000 -0.5556
vn 0.6388 0.7588 0.1271
vn -0.5556 -0.0000 -0.8315
vn -0.1951 -0.0000 -0.9808
vn -0.0000 -1.0000 -0.0000
vn -0.3618 0.7588 0.5415
vn -0.3618 0.7588 -0.5415
vn 0.5415 0.7588 -0.3618
vn 0.1271 0.7588 0.6388
vn 0.1271 0.7588 -0.6388
vn -0.6388 0.7588 -0.1271
vn 0.5415 0.7588 0.3618
vn -0.5415 0.7588 0.3618
vn -0.1271 0.7588 -0.6388
vn 0.6388 0.7588 -0.1271
vn -0.1271 0.7588 0.6388
vn -0.5415 0.7588 -0.3618
vn 0.3618 0.7588 -0.5415
vn 0.3618 0.7588 0.5415
vn -0.6388 0.7588 0.1271
vn -0.0000 1.0000 -0.0000
vn -0.0633 -0.9459 0.3183
vn -0.1803 -0.9459 0.2698
vn -0.2698 -0.9459 0.1803
vn -0.3183 -0.9459 0.0633
vn -0.3183 -0.9459 -0.0633
vn -0.2698 -0.9459 -0.1803
vn -0.1803 -0.9459 -0.2698
vn -0.0633 -0.9459 -0.3183
vn 0.0633 -0.9459 -0.3183
vn 0.1803 -0.9459 -0.2698
vn 0.2698 -0.9459 -0.1803
vn 0.3183 -0.9459 -0.0633
vn 0.3183 -0.9459 0.0633
vn 0.2698 -0.9459 0.1803
vn 0.1803 -0.9459 0.2698
vn 0.0633 -0.9459 0.3183
vn -0.0811 -0.9096 0.4075
vn -0.2308 -0.9096 0.3455
vn -0.3455 -0.9096 0.2308
vn -0.4075 -0.9096 0.0811
vn -0.4075 -0.9096 -0.0811
vn -0.3455 -0.9096 -0.2308
vn -0.2308 -0.9096 -0.3455
vn -0.0811 -0.9096 -0.4075
vn 0.0811 -0.9096 -0.4075
vn 0.2308 -0.9096 -0.3455
vn 0.3455 -0.9096 -0.2308
vn 0.4075 -0.9096 -0.0811
vn 0.4075 -0.9096 0.0811
vn 0.3455 -0.9096 0.2308
vn 0.2308 -0.9096 0.3455
vn 0.0811 -0.9096 0.4075
vt 1.000000 0.500000
vt 1.000000 1.000000
vt 0.937500 1.000000
vt 0.937500 0.500000
vt 0.875000 1.000000
vt 0.875000 0.500000
vt 0.812500 1.000000
vt 0.812500 0.500000
vt 0.750000 1.000000
vt 0.750000 0.500000
vt 0.687500 1.000000
vt 0.687500 0.500000
vt 0.625000 1.000000
vt 0.625000 0.500000
vt 0.562500 1.000000
vt 0.562500 0.500000
vt 0.500000 1.000000
vt 0.500000 0.500000
vt 0.437500 1.000000
vt 0.437500 0.500000
vt 0.375000 1.000000
vt 0.375000 0.500000
vt 0.312500 1.000000
vt 0.312500 0.500000
vt 0.250000 1.000000
vt 0.250000 0.500000
vt 0.187500 1.000000
vt 0.187500 0.500000
vt 0.125000 1.000000
vt 0.125000 0.500000
vt 0.062500 1.000000
vt 0.062500 0.500000
vt 0.000000 1.000000
vt 0.000000 0.500000
vt 0.750000 0.351973
vt 0.789023 0.344211
vt 0.822106 0.322106
vt 0.844211 0.289023
vt 0.851973 0.250000
vt 0.844211 0.210977
vt 0.822106 0.177894
vt 0.789023 0.155789
vt 0.750000 0.148027
vt 0.710977 0.155789
vt 0.677894 0.177894
vt 0.655789 0.210977
vt 0.648027 0.250000
vt 0.655789 0.289023
vt 0.677894 0.322106
vt 0.710977 0.344211
vt 0.190938 0.309062
vt 0.172832 0.281964
vt 0.250000 0.333526
vt 0.281964 0.327168
vt 0.341844 0.471731
vt 0.250000 0.490000
vt 0.309062 0.309062
vt 0.419706 0.419706
vt 0.327168 0.281964
vt 0.471731 0.341844
vt 0.333526 0.250000
vt 0.490000 0.250000
vt 0.327168 0.218036
vt 0.471731 0.158156
vt 0.309062 0.190938
vt 0.419706 0.080294
vt 0.281964 0.172832
vt 0.341844 0.028269
vt 0.250000 0.166474
vt 0.250000 0.010000
vt 0.218036 0.172832
vt 0.158156 0.028269
vt 0.190938 0.190938
vt 0.080294 0.080294
vt 0.172832 0.218036
vt 0.028269 0.158156
vt 0.166474 0.250000
vt 0.010000 0.250000
vt 0.028269 0.341844
vt 0.080294 0.419706
vt 0.218036 0.327168
vt 0.158156 0.471731
vt 0.833956 0.452687
vt 0.750000 0.469387
vt 0.750000 0.490000
vt 0.841844 0.471731
vt 0.905130 0.405130
vt 0.919706 0.419706
vt 0.952687 0.333956
vt 0.971731 0.341844
vt 0.969387 0.250000
vt 0.990000 0.250000
vt 0.952687 0.166044
vt 0.971731 0.158156
vt 0.905130 0.094870
vt 0.919706 0.080294
vt 0.833956 0.047313
vt 0.841844 0.028269
vt 0.750000 0.030613
vt 0.750000 0.010000
vt 0.666044 0.047313
vt 0.658156 0.028269
vt 0.594870 0.094870
vt 0.580294 0.080294
vt 0.547313 0.166044
vt 0.528269 0.158156
vt 0.530613 0.250000
vt 0.510000 0.250000
vt 0.547313 0.333956
vt 0.528269 0.341844
vt 0.594870 0.405130
vt 0.580294 0.419706
vt 0.666044 0.452687
vt 0.658156 0.471731
vt 0.811138 0.397600
vt 0.750000 0.409761
vt 0.862968 0.362968
vt 0.897600 0.311138
vt 0.909761 0.250000
vt 0.897600 0.188862
vt 0.862968 0.137032
vt 0.811138 0.102400
vt 0.750000 0.090239
vt 0.688862 0.102400
vt 0.637032 0.137032
vt 0.602400 0.188862
vt 0.590239 0.250000
vt 0.602400 0.311138
vt 0.637032 0.362968
vt 0.688862 0.397600
s 0
usemtl Material.001
f 97/1/1 2/2/1 4/3/1 98/4/1
f 98/4/2 4/3/2 6/5/2 99/6/2
f 99/6/3 6/5/3 8/7/3 100/8/3
f 100/8/4 8/7/4 10/9/4 101/10/4
f 101/10/5 10/9/5 12/11/5 102/12/5
f 102/12/6 12/11/6 14/13/6 103/14/6
f 103/14/7 14/13/7 16/15/7 104/16/7
f 104/16/8 16/15/8 18/17/8 105/18/8
f 105/18/9 18/17/9 20/19/9 106/20/9
f 106/20/10 20/19/10 22/21/10 107/22/10
f 107/22/11 22/21/11 24/23/11 108/24/11
f 108/24/12 24/23/12 26/25/12 109/26/12
f 109/26/13 26/25/13 28/27/13 110/28/13
f 110/28/14 28/27/14 30/29/14 111/30/14
f 111/30/16 30/29/16 32/31/16 112/32/16
f 112/32/17 32/31/17 2/33/17 97/34/17
usemtl Material.002
f 12/11/15 10/9/15 37/9/15 38/11/15
f 1/35/18 3/36/18 5/37/18 7/38/18 9/39/18 11/40/18 13/41/18 15/42/18 17/43/18 19/44/18 21/45/18 23/46/18 25/47/18 27/48/18 29/49/18 31/50/18
f 44/23/11 43/21/11 75/21/11 76/23/11
f 22/21/19 20/19/19 42/19/19 43/21/19
f 32/31/20 30/29/20 47/29/20 48/31/20
f 8/7/21 6/5/21 35/5/21 36/7/21
f 18/17/22 16/15/22 40/15/22 41/17/22
f 4/3/23 2/2/23 33/2/23 34/3/23
f 28/27/24 26/25/24 45/25/24 46/27/24
f 14/13/25 12/11/25 38/11/25 39/13/25
f 24/23/26 22/21/26 43/21/26 44/23/26
f 2/33/27 32/31/27 48/31/27 33/33/27
f 10/9/28 8/7/28 36/7/28 37/9/28
f 20/19/29 18/17/29 41/17/29 42/19/29
f 30/29/30 28/27/30 46/27/30 47/29/30
f 6/5/31 4/3/31 34/3/31 35/5/31
f 16/15/32 14/13/32 39/13/32 40/15/32
f 26/25/33 24/23/33 44/23/33 45/25/33
f 37/9/4 36/7/4 68/7/4 69/9/4
f 45/25/12 44/23/12 76/23/12 77/25/12
f 38/11/5 37/9/5 69/9/5 70/11/5
f 46/27/13 45/25/13 77/25/13 78/27/13
f 39/13/6 38/11/6 70/11/6 71/13/6
f 47/29/14 46/27/14 78/27/14 79/29/14
f 40/15/7 39/13/7 71/13/7 72/15/7
f 48/31/16 47/29/16 79/29/16 80/31/16
f 41/17/8 40/15/8 72/15/8 73/17/8
f 34/3/1 33/2/1 66/2/1 65/3/1
f 33/33/17 48/31/17 80/31/17 66/33/17
f 42/19/9 41/17/9 73/17/9 74/19/9
f 35/5/2 34/3/2 65/3/2 67/5/2
f 43/21/10 42/19/10 74/19/10 75/21/10
f 36/7/3 35/5/3 67/5/3 68/7/3
f 49/53/34 50/54/34 65/55/34 66/56/34
f 50/54/34 51/57/34 67/58/34 65/55/34
f 51/57/34 52/59/34 68/60/34 67/58/34
f 52/59/34 53/61/34 69/62/34 68/60/34
f 53/61/34 54/63/34 70/64/34 69/62/34
f 54/63/34 55/65/34 71/66/34 70/64/34
f 55/65/34 56/67/34 72/68/34 71/66/34
f 56/67/34 57/69/34 73/70/34 72/68/34
f 57/69/34 58/71/34 74/72/34 73/70/34
f 58/71/34 59/73/34 75/74/34 74/72/34
f 59/73/34 60/75/34 76/76/34 75/74/34
f 60/75/34 61/77/34 77/78/34 76/76/34
f 61/77/34 62/52/34 78/79/34 77/78/34
f 62/52/34 63/51/34 79/80/34 78/79/34
f 63/51/34 64/81/34 80/82/34 79/80/34
f 64/81/34 49/53/34 66/56/34 80/82/34
f 114/83/18 113/84/18 97/85/18 98/86/18
f 115/87/18 114/83/18 98/86/18 99/88/18
f 116/89/18 115/87/18 99/88/18 100/90/18
f 117/91/18 116/89/18 100/90/18 101/92/18
f 118/93/18 117/91/18 101/92/18 102/94/18
f 119/95/18 118/93/18 102/94/18 103/96/18
f 120/97/18 119/95/18 103/96/18 104/98/18
f 121/99/18 120/97/18 104/98/18 105/100/18
f 122/101/18 121/99/18 105/100/18 106/102/18
f 123/103/18 122/101/18 106/102/18 107/104/18
f 124/105/18 123/103/18 107/104/18 108/106/18
f 125/107/18 124/105/18 108/106/18 109/108/18
f 126/109/18 125/107/18 109/108/18 110/110/18
f 127/111/18 126/109/18 110/110/18 111/112/18
f 128/113/18 127/111/18 111/112/18 112/114/18
f 113/84/18 128/113/18 112/114/18 97/85/18
f 130/115/35 129/116/35 113/84/35 114/83/35
f 131/117/36 130/115/36 114/83/36 115/87/36
f 132/118/37 131/117/37 115/87/37 116/89/37
f 133/119/38 132/118/38 116/89/38 117/91/38
f 134/120/39 133/119/39 117/91/39 118/93/39
f 135/121/40 134/120/40 118/93/40 119/95/40
f 136/122/41 135/121/41 119/95/41 120/97/41
f 137/123/42 136/122/42 120/97/42 121/99/42
f 138/124/43 137/123/43 121/99/43 122/101/43
f 139/125/44 138/124/44 122/101/44 123/103/44
f 140/126/45 139/125/45 123/103/45 124/105/45
f 141/127/46 140/126/46 124/105/46 125/107/46
f 142/128/47 141/127/47 125/107/47 126/109/47
f 143/129/48 142/128/48 126/109/48 127/111/48
f 144/130/49 143/129/49 127/111/49 128/113/49
f 129/116/50 144/130/50 128/113/50 113/84/50
f 3/36/51 1/35/51 129/116/51 130/115/51
f 5/37/52 3/36/52 130/115/52 131/117/52
f 7/38/53 5/37/53 131/117/53 132/118/53
f 9/39/54 7/38/54 132/118/54 133/119/54
f 11/40/55 9/39/55 133/119/55 134/120/55
f 13/41/56 11/40/56 134/120/56 135/121/56
f 15/42/57 13/41/57 135/121/57 136/122/57
f 17/43/58 15/42/58 136/122/58 137/123/58
f 19/44/59 17/43/59 137/123/59 138/124/59
f 21/45/60 19/44/60 138/124/60 139/125/60
f 23/46/61 21/45/61 139/125/61 140/126/61
f 25/47/62 23/46/62 140/126/62 141/127/62
f 27/48/63 25/47/63 141/127/63 142/128/63
f 29/49/64 27/48/64 142/128/64 143/129/64
f 31/50/65 29/49/65 143/129/65 144/130/65
f 1/35/66 31/50/66 144/130/66 129/116/66
usemtl Material.003
f 63/51/14 62/52/14 94/52/14 95/51/14
f 82/54/34 81/53/34 96/81/34 95/51/34 94/52/34 93/77/34 92/75/34 91/73/34 90/71/34 89/69/34 88/67/34 87/65/34 86/63/34 85/61/34 84/59/34 83/57/34
f 56/67/7 55/65/7 87/65/7 88/67/7
f 64/81/16 63/51/16 95/51/16 96/81/16
f 57/69/8 56/67/8 88/67/8 89/69/8
f 50/54/1 49/53/1 81/53/1 82/54/1
f 49/53/17 64/81/17 96/81/17 81/53/17
f 58/71/9 57/69/9 89/69/9 90/71/9
f 51/57/2 50/54/2 82/54/2 83/57/2
f 59/73/10 58/71/10 90/71/10 91/73/10
f 52/59/3 51/57/3 83/57/3 84/59/3
f 60/75/11 59/73/11 91/73/11 92/75/11
f 53/61/4 52/59/4 84/59/4 85/61/4
f 61/77/12 60/75/12 92/75/12 93/77/12
f 54/63/5 53/61/5 85/61/5 86/63/5
f 62/52/13 61/77/13 93/77/13 94/52/13
f 55/65/6 54/63/6 86/63/6 87/65/6
