# Blender 3.3.1
# www.blender.org
mtllib tablet.mtl
o Cube
v -3.065542 0.492394 4.355965
v -3.065542 0.492394 -4.355965
v 3.065542 0.492394 4.355965
v 3.065542 0.492394 -4.355965
v -3.065542 0.475635 4.355965
v -3.065542 0.475635 -4.355965
v 3.065542 0.475635 -4.355965
v 3.065542 0.475635 4.355965
v -3.158661 0.331392 4.615048
v -3.237469 0.331392 4.565882
v -3.322540 0.331392 4.448770
v -3.352411 0.331392 4.349494
v -3.352411 0.331392 -4.349494
v -3.322540 0.331392 -4.448770
v -3.237469 0.331392 -4.565882
v -3.158661 0.331392 -4.615048
v 3.352411 0.331392 4.349494
v 3.322540 0.331392 4.448770
v 3.237469 0.331392 4.565882
v 3.158661 0.331392 4.615048
v 3.158661 0.331392 -4.615048
v 3.237469 0.331392 -4.565882
v 3.322540 0.331392 -4.448770
v 3.352411 0.331392 -4.349494
v -3.352411 0.492394 4.349494
v -3.322540 0.492394 4.448770
v -3.315239 0.492394 4.435278
v -3.237703 0.492394 4.565560
v -3.158627 0.492394 4.615048
v -3.257367 0.492394 4.478296
v -3.190353 0.492394 4.468687
v -3.158627 0.492394 -4.615048
v -3.237703 0.492394 -4.565560
v -3.322540 0.492394 -4.448770
v -3.352411 0.492394 -4.349494
v -3.315239 0.492394 -4.435278
v -3.190353 0.492394 -4.468687
v -3.257367 0.492394 -4.478296
v 3.352411 0.492394 -4.349494
v 3.322540 0.492394 -4.448770
v 3.315239 0.492394 -4.435278
v 3.237703 0.492394 -4.565560
v 3.158627 0.492394 -4.615048
v 3.257367 0.492394 -4.478296
v 3.190353 0.492394 -4.468687
v 3.158627 0.492394 4.615048
v 3.237703 0.492394 4.565560
v 3.322540 0.492394 4.448770
v 3.352411 0.492394 4.349494
v 3.315239 0.492394 4.435278
v 3.190353 0.492394 4.468687
v 3.257367 0.492394 4.478296
vn -1.0000 -0.0000 -0.0000
vn 0.8091 -0.0000 -0.5877
vn -0.0000 1.0000 -0.0000
vn 0.8091 -0.0000 0.5877
vn -0.8091 -0.0000 -0.5877
vn -0.0000 -0.0000 -1.0000
vn -0.0000 -0.0000 1.0000
vn 1.0000 -0.0000 -0.0000
vn -0.8091 -0.0000 0.5877
vn -0.5299 0.0005 0.8481
vn -0.9576 -0.0000 0.2881
vn -0.5299 0.0005 -0.8481
vn -0.9576 -0.0000 -0.2881
vn 0.9576 -0.0000 -0.2881
vn 0.5299 0.0005 -0.8481
vn 0.5299 0.0005 0.8481
vn 0.9576 -0.0000 0.2881
vn -0.0000 -1.0000 -0.0000
vt 0.864304 0.739304
vt 0.864304 0.510696
vt 0.635696 0.739304
vt 0.635696 0.510696
vt 0.864304 0.739304
vt 0.864304 0.510696
vt 0.635696 0.510696
vt 0.635696 0.739304
vt 0.375000 0.992776
vt 0.375000 0.000000
vt 0.132224 0.750000
vt 0.375000 0.001332
vt 0.129286 0.748668
vt 0.375000 0.004504
vt 0.126114 0.745496
vt 0.375000 0.007193
vt 0.125000 0.742807
vt 0.375000 0.242807
vt 0.125000 0.507193
vt 0.375000 0.246610
vt 0.126114 0.504504
vt 0.375000 0.252954
vt 0.129286 0.501332
vt 0.375000 0.257224
vt 0.132224 0.500000
vt 0.375000 0.742807
vt 0.375000 0.746610
vt 0.373886 0.745496
vt 0.375000 0.752954
vt 0.370714 0.748668
vt 0.375000 0.757224
vt 0.367776 0.750000
vt 0.375000 0.492776
vt 0.367776 0.500000
vt 0.375000 0.497046
vt 0.370714 0.501332
vt 0.375000 0.503390
vt 0.373886 0.504504
vt 0.375000 0.507193
vt 0.875000 0.742807
vt 0.625000 0.007193
vt 0.874221 0.744718
vt 0.625000 0.005617
vt 0.625000 0.004504
vt 0.873614 0.744654
vt 0.625000 0.005617
vt 0.872010 0.745669
vt 0.625000 0.001340
vt 0.867775 0.750000
vt 0.625000 0.992774
vt 0.871073 0.746073
vt 0.625000 0.000000
vt 0.871456 0.745077
vt 0.868957 0.743957
vt 0.870303 0.745303
vt 0.867774 0.500000
vt 0.871073 0.503927
vt 0.625000 0.257226
vt 0.872010 0.504331
vt 0.625000 0.252937
vt 0.874221 0.505282
vt 0.625000 0.244383
vt 0.625000 0.246610
vt 0.875000 0.507193
vt 0.625000 0.242807
vt 0.873614 0.505346
vt 0.625000 0.244383
vt 0.868957 0.506043
vt 0.870303 0.504697
vt 0.871456 0.504923
vt 0.625000 0.505617
vt 0.625000 0.507193
vt 0.628179 0.502066
vt 0.625000 0.503390
vt 0.628202 0.503202
vt 0.626386 0.505346
vt 0.625000 0.503483
vt 0.629892 0.500615
vt 0.625000 0.497063
vt 0.632226 0.500000
vt 0.625000 0.492774
vt 0.628544 0.504923
vt 0.629176 0.504176
vt 0.631043 0.506043
vt 0.632226 0.750000
vt 0.625000 0.757226
vt 0.629892 0.749385
vt 0.625000 0.752937
vt 0.628179 0.747934
vt 0.625000 0.744383
vt 0.625000 0.746610
vt 0.625000 0.742807
vt 0.628202 0.746798
vt 0.626386 0.744654
vt 0.625000 0.744383
vt 0.631043 0.743957
vt 0.628544 0.745077
vt 0.629176 0.745824
s 0
usemtl Material.001
f 12/16/1 25/41/1 35/65/1 13/18/1
f 40/74/2 23/37/2 22/35/2 42/79/2
f 3/3/3 1/1/3 31/54/3 29/49/3 46/85/3 51/96/3
f 47/88/4 19/29/4 18/27/4 48/91/4
f 33/60/5 15/22/5 14/20/5 34/63/5
f 1/1/6 3/3/6 8/8/6 5/5/6
f 33/59/3 34/61/3 36/66/3 38/70/3
f 47/87/3 48/89/3 50/93/3 52/98/3
f 41/75/3 40/73/3 42/78/3 44/83/3
f 4/4/7 2/2/7 6/6/7 7/7/7
f 3/3/1 4/4/1 7/7/1 8/8/1
f 2/2/8 1/1/8 5/5/8 6/6/8
f 1/1/3 2/2/3 37/68/3 38/70/3 36/66/3 35/64/3 25/40/3 27/45/3 30/53/3 31/54/3
f 2/2/3 4/4/3 45/84/3 43/80/3 32/56/3 37/68/3
f 4/4/3 3/3/3 51/96/3 52/97/3 50/94/3 49/92/3 39/72/3 41/76/3 44/82/3 45/84/3
f 20/31/7 46/86/7 29/50/7 9/9/7
f 16/24/6 32/58/6 43/81/6 21/33/6
f 27/45/3 26/42/3 28/47/3 30/53/3
f 24/39/8 39/72/8 49/92/8 17/26/8
f 10/12/9 28/48/9 26/44/9 11/14/9
f 25/41/3 26/43/3 27/46/3
f 34/62/3 35/65/3 36/67/3
f 39/71/3 40/74/3 41/77/3
f 48/90/3 49/92/3 50/95/3
f 29/51/3 31/55/3 30/53/3 28/47/3
f 37/69/3 32/57/3 33/59/3 38/70/3
f 43/80/3 45/84/3 44/83/3 42/78/3
f 51/96/3 46/85/3 47/87/3 52/98/3
f 9/10/10 29/52/10 28/48/10 10/12/10
f 25/41/11 12/16/11 11/14/11 26/44/11
f 32/58/12 16/24/12 15/22/12 33/60/12
f 13/18/13 35/65/13 34/63/13 14/20/13
f 39/72/14 24/39/14 23/37/14 40/74/14
f 21/33/15 43/81/15 42/79/15 22/35/15
f 46/86/16 20/31/16 19/29/16 47/88/16
f 17/26/17 49/92/17 48/91/17 18/27/17
f 13/19/18 14/21/18 15/23/18 16/25/18 21/34/18 22/36/18 23/38/18 24/39/18 17/26/18 18/28/18 19/30/18 20/32/18 9/11/18 10/13/18 11/15/18 12/17/18
usemtl Material.002
f 7/7/3 6/6/3 5/5/3 8/8/3
