# Blender 4.2.3 LTS
# www.blender.org
mtllib tabletImportant.mtl
o Cube
v -3.065542 0.492394 4.355965
v -3.065542 0.492394 -4.355965
v 3.065542 0.492394 4.355965
v 3.065542 0.492394 -4.355965
v -3.065542 0.475635 4.355965
v -3.065542 0.475635 -4.355965
v 3.065542 0.475635 -4.355965
v 3.065542 0.475635 4.355965
v -3.158661 0.331392 4.615048
v -3.237469 0.331392 4.565882
v -3.322540 0.331392 4.448770
v -3.352411 0.331392 4.349494
v -3.352411 0.331392 -4.349494
v -3.322540 0.331392 -4.448770
v -3.237469 0.331392 -4.565882
v -3.158661 0.331392 -4.615048
v 3.352411 0.331392 4.349494
v 3.322540 0.331392 4.448770
v 3.237469 0.331392 4.565882
v 3.158661 0.331392 4.615048
v 3.158661 0.331392 -4.615048
v 3.237469 0.331392 -4.565882
v 3.322540 0.331392 -4.448770
v 3.352411 0.331392 -4.349494
v -3.352411 0.492394 4.349494
v -3.322540 0.492394 4.448770
v -3.315239 0.492394 4.435278
v -3.237703 0.492394 4.565560
v -3.158627 0.492394 4.615048
v -3.257367 0.492394 4.478296
v -3.190353 0.492394 4.468687
v -3.158627 0.492394 -4.615048
v -3.237703 0.492394 -4.565560
v -3.322540 0.492394 -4.448770
v -3.352411 0.492394 -4.349494
v -3.315239 0.492394 -4.435278
v -3.190353 0.492394 -4.468687
v -3.257367 0.492394 -4.478296
v 3.352411 0.492394 -4.349494
v 3.322540 0.492394 -4.448770
v 3.315239 0.492394 -4.435278
v 3.237703 0.492394 -4.565560
v 3.158627 0.492394 -4.615048
v 3.257367 0.492394 -4.478296
v 3.190353 0.492394 -4.468687
v 3.158627 0.492394 4.615048
v 3.237703 0.492394 4.565560
v 3.322540 0.492394 4.448770
v 3.352411 0.492394 4.349494
v 3.315239 0.492394 4.435278
v 3.190353 0.492394 4.468687
v 3.257367 0.492394 4.478296
vn -1.0000 -0.0000 -0.0000
vn 0.8091 -0.0000 -0.5877
vn -0.0000 1.0000 -0.0000
vn 0.8091 -0.0000 0.5877
vn -0.8091 -0.0000 -0.5877
vn -0.0000 -0.0000 -1.0000
vn -0.0000 -0.0000 1.0000
vn 1.0000 -0.0000 -0.0000
vn -0.8091 -0.0000 0.5877
vn -0.5299 0.0005 0.8481
vn -0.9576 -0.0000 0.2881
vn -0.5299 0.0005 -0.8481
vn -0.9576 -0.0000 -0.2881
vn 0.9576 -0.0000 -0.2881
vn 0.5299 0.0005 -0.8481
vn 0.5299 0.0005 0.8481
vn 0.9576 -0.0000 0.2881
vn -0.0000 -1.0000 -0.0000
vt 0.658574 0.917466
vt 0.619671 0.917466
vt 0.619671 0.481244
vt 0.658574 0.481244
vt 0.564022 0.927423
vt 0.602925 0.927423
vt 0.602925 0.935058
vt 0.564022 0.935037
vt 0.021938 0.029049
vt 0.021938 0.470951
vt 0.016036 0.479946
vt 0.008373 0.477660
vt 0.008373 0.022340
vt 0.016036 0.020054
vt 0.547276 0.487358
vt 0.508373 0.487375
vt 0.508374 0.481244
vt 0.547276 0.481244
vt 0.675321 0.805526
vt 0.714223 0.805504
vt 0.714223 0.814175
vt 0.675320 0.814173
vt 0.793357 0.790304
vt 0.793357 0.481244
vt 0.797406 0.481244
vt 0.797406 0.790304
vt 0.489036 0.483359
vt 0.482921 0.489474
vt 0.482215 0.488948
vt 0.484467 0.484776
vt 0.010964 0.016641
vt 0.017079 0.010526
vt 0.017785 0.011052
vt 0.015533 0.015224
vt 0.482215 0.011052
vt 0.482921 0.010526
vt 0.489036 0.016641
vt 0.484467 0.015224
vt 0.950274 0.464498
vt 0.508373 0.464498
vt 0.508373 0.008373
vt 0.950274 0.008373
vt 0.730969 0.923145
vt 0.730969 0.481244
vt 0.735019 0.481244
vt 0.735019 0.923145
vt 0.751765 0.918115
vt 0.751765 0.481244
vt 0.755815 0.481244
vt 0.755815 0.918115
vt 0.772561 0.918115
vt 0.772561 0.481244
vt 0.776610 0.481244
vt 0.776610 0.918115
vt 0.478062 0.470951
vt 0.483964 0.479946
vt 0.477723 0.491627
vt 0.022277 0.491627
vt 0.017785 0.488948
vt 0.015533 0.484776
vt 0.478062 0.029049
vt 0.483964 0.020054
vt 0.491627 0.022340
vt 0.491627 0.477660
vt 0.022277 0.008373
vt 0.477723 0.008373
vt 0.508373 0.493056
vt 0.547275 0.493058
vt 0.547276 0.948377
vt 0.508373 0.948380
vt 0.714223 0.799692
vt 0.675321 0.799688
vt 0.675320 0.481244
vt 0.714222 0.481244
vt 0.017079 0.489474
vt 0.010964 0.483359
vt 0.602925 0.921826
vt 0.564022 0.921826
vt 0.564022 0.485603
vt 0.602925 0.485603
vt 0.658574 0.930699
vt 0.619671 0.930678
vt 0.619671 0.923064
vt 0.658574 0.923064
vt 0.547276 0.954077
vt 0.508374 0.954060
vt 0.714222 0.819396
vt 0.675320 0.819394
vt 0.602925 0.939157
vt 0.564022 0.939157
vt 0.564022 0.481244
vt 0.602925 0.481244
vt 0.477723 0.508373
vt 0.482921 0.510526
vt 0.489053 0.516658
vt 0.491627 0.522338
vt 0.491627 0.977662
vt 0.489053 0.983342
vt 0.482921 0.989474
vt 0.477723 0.991627
vt 0.022277 0.991627
vt 0.017079 0.989474
vt 0.010947 0.983342
vt 0.008373 0.977662
vt 0.008373 0.522338
vt 0.010947 0.516658
vt 0.017079 0.510526
vt 0.022277 0.508373
s 0
g Cube_Material.001
usemtl Material.001
f 12/1/1 25/2/1 35/3/1 13/4/1
f 40/5/2 23/6/2 22/7/2 42/8/2
f 3/9/3 1/10/3 31/11/3 29/12/3 46/13/3 51/14/3
f 47/15/4 19/16/4 18/17/4 48/18/4
f 33/19/5 15/20/5 14/21/5 34/22/5
f 1/23/6 3/24/6 8/25/6 5/26/6
f 33/27/3 34/28/3 36/29/3 38/30/3
f 47/31/3 48/32/3 50/33/3 52/34/3
f 41/35/3 40/36/3 42/37/3 44/38/3
f 4/43/7 2/44/7 6/45/7 7/46/7
f 3/47/1 4/48/1 7/49/1 8/50/1
f 2/51/8 1/52/8 5/53/8 6/54/8
f 1/10/3 2/55/3 37/56/3 38/30/3 36/29/3 35/57/3 25/58/3 27/59/3 30/60/3 31/11/3
f 2/55/3 4/61/3 45/62/3 43/63/3 32/64/3 37/56/3
f 4/61/3 3/9/3 51/14/3 52/34/3 50/33/3 49/65/3 39/66/3 41/35/3 44/38/3 45/62/3
f 20/67/7 46/68/7 29/69/7 9/70/7
f 16/71/6 32/72/6 43/73/6 21/74/6
f 27/59/3 26/75/3 28/76/3 30/60/3
f 24/77/8 39/78/8 49/79/8 17/80/8
f 10/81/9 28/82/9 26/83/9 11/84/9
f 25/58/3 26/75/3 27/59/3
f 34/28/3 35/57/3 36/29/3
f 39/66/3 40/36/3 41/35/3
f 48/32/3 49/65/3 50/33/3
f 29/12/3 31/11/3 30/60/3 28/76/3
f 37/56/3 32/64/3 33/27/3 38/30/3
f 43/63/3 45/62/3 44/38/3 42/37/3
f 51/14/3 46/13/3 47/31/3 52/34/3
f 9/70/10 29/69/10 28/85/10 10/86/10
f 25/2/11 12/1/11 11/84/11 26/83/11
f 32/72/12 16/71/12 15/20/12 33/19/12
f 13/87/13 35/88/13 34/22/13 14/21/13
f 39/78/14 24/77/14 23/6/14 40/5/14
f 21/89/15 43/90/15 42/8/15 22/7/15
f 46/68/16 20/67/16 19/16/16 47/15/16
f 17/80/17 49/79/17 48/91/17 18/92/17
f 13/93/18 14/94/18 15/95/18 16/96/18 21/97/18 22/98/18 23/99/18 24/100/18 17/101/18 18/102/18 19/103/18 20/104/18 9/105/18 10/106/18 11/107/18 12/108/18
g Cube_Material.002
usemtl Material.002
f 7/39/3 6/40/3 5/41/3 8/42/3
