# Blender 3.3.1
# www.blender.org
mtllib table.mtl
o Cube
v -1.000000 -1.000000 5.233137
v -1.000000 1.100000 5.233137
v -1.000000 -1.000000 -5.233137
v -1.000000 1.100000 -5.233137
v 1.000000 -1.000000 5.233137
v 1.000000 1.100000 5.233137
v 1.000000 -1.000000 -5.233137
v 1.000000 1.100000 -5.233137
v -2.600906 1.097969 6.557317
v -2.600906 1.097969 -6.557317
v 2.600906 1.097969 6.557317
v 2.600906 1.097969 -6.557317
v -2.600906 1.661293 6.557317
v -2.600906 1.661293 -6.557317
v 2.600906 1.661293 6.557317
v 2.600906 1.661293 -6.557317
vn -1.0000 -0.0000 -0.0000
vn -0.0000 -0.0000 -1.0000
vn 1.0000 -0.0000 -0.0000
vn -0.0000 -0.0000 1.0000
vn -0.0000 -1.0000 -0.0000
vn 0.0013 -1.0000 -0.0000
vn -0.0000 -1.0000 -0.0015
vn -0.0000 -1.0000 0.0015
vn -0.0013 -1.0000 -0.0000
vn -0.0000 1.0000 -0.0000
vt 0.375000 0.000000
vt 0.375000 1.000000
vt 0.125000 0.750000
vt 0.625000 0.000000
vt 0.625000 1.000000
vt 0.375000 0.250000
vt 0.125000 0.500000
vt 0.625000 0.250000
vt 0.375000 0.750000
vt 0.625000 0.750000
vt 0.375000 0.500000
vt 0.625000 0.500000
vt 0.625000 0.000000
vt 0.625000 1.000000
vt 0.625000 0.250000
vt 0.625000 0.750000
vt 0.625000 0.500000
vt 0.875000 0.750000
vt 0.625000 0.000000
vt 0.625000 1.000000
vt 0.875000 0.500000
vt 0.625000 0.250000
vt 0.625000 0.750000
vt 0.625000 0.500000
s 0
f 1/1/1 2/4/1 4/8/1 3/6/1
f 3/6/2 4/8/2 8/12/2 7/11/2
f 7/11/3 8/12/3 6/10/3 5/9/3
f 5/9/4 6/10/4 2/5/4 1/2/4
f 3/7/5 7/11/5 5/9/5 1/3/5
f 4/8/6 2/4/6 9/13/6 10/15/6
f 12/17/2 10/15/2 14/22/2 16/24/2
f 2/5/7 6/10/7 11/16/7 9/14/7
f 8/12/8 4/8/8 10/15/8 12/17/8
f 6/10/9 8/12/9 12/17/9 11/16/9
f 16/24/10 14/21/10 13/18/10 15/23/10
f 11/16/3 12/17/3 16/24/3 15/23/3
f 10/15/1 9/13/1 13/19/1 14/22/1
f 9/14/4 11/16/4 15/23/4 13/20/4
